<?xml version="1.0" encoding="UTF-8" standalone="no"?>
<!-- Created with Inkscape (http://www.inkscape.org/) -->

<svg
   xmlns:dc="http://purl.org/dc/elements/1.1/"
   xmlns:cc="http://creativecommons.org/ns#"
   xmlns:rdf="http://www.w3.org/1999/02/22-rdf-syntax-ns#"
   xmlns:svg="http://www.w3.org/2000/svg"
   xmlns="http://www.w3.org/2000/svg"
   xmlns:sodipodi="http://sodipodi.sourceforge.net/DTD/sodipodi-0.dtd"
   xmlns:inkscape="http://www.inkscape.org/namespaces/inkscape"
   width="40"
   height="22"
   id="svg3849"
   version="1.1"
   inkscape:version="0.48.4 r9939"
   sodipodi:docname="stereo.svg">
  <defs
     id="defs3851" />
  <sodipodi:namedview
     id="base"
     pagecolor="#ffffff"
     bordercolor="#666666"
     borderopacity="1.0"
     inkscape:pageopacity="0.0"
     inkscape:pageshadow="2"
     inkscape:zoom="32"
     inkscape:cx="16.722652"
     inkscape:cy="10.577435"
     inkscape:document-units="px"
     inkscape:current-layer="layer1"
     showgrid="true"
     inkscape:window-width="1920"
     inkscape:window-height="1138"
     inkscape:window-x="-8"
     inkscape:window-y="-8"
     inkscape:window-maximized="1">
    <inkscape:grid
       type="xygrid"
       id="grid3857"
       empspacing="5"
       visible="true"
       enabled="true"
       snapvisiblegridlinesonly="true" />
  </sodipodi:namedview>
  <metadata
     id="metadata3854">
    <rdf:RDF>
      <cc:Work
         rdf:about="">
        <dc:format>image/svg+xml</dc:format>
        <dc:type
           rdf:resource="http://purl.org/dc/dcmitype/StillImage" />
      </cc:Work>
    </rdf:RDF>
  </metadata>
  <g
     inkscape:label="Layer 1"
     inkscape:groupmode="layer"
     id="layer1">
    <path
       style="fill:#aaffdd;fill-opacity:1;stroke:none"
       d="M 11,0 C 4.9248678,0 0,4.9248678 0,11 c 0,6.075132 4.9248678,11 11,11 3.724651,0 7.009976,-1.854976 9,-4.6875 C 21.990024,20.145024 25.275349,22 29,22 35.075132,22 40,17.075132 40,11 40,4.9248678 35.075132,0 29,0 25.275349,0 21.990024,1.8549755 20,4.6875 18.009976,1.8549755 14.724651,0 11,0 z m 1,2 c 2.715088,0 5.130662,1.2235326 6.78125,3.125 0.0043,0.00495 0.02696,-0.00496 0.03125,0 C 19.193746,5.0490282 19.596422,5 20,5 20.424895,5 20.850076,5.0410084 21.25,5.125 22.898226,3.2226785 25.316973,2 28.03125,2 c 4.970563,0 9,4.0294372 9,9 0,4.970563 -4.029437,9 -9,9 C 25.316973,20 22.898226,18.777322 21.25,16.875 20.850076,16.958992 20.424895,17 20,17 c -0.403578,0 -0.806254,-0.04903 -1.1875,-0.125 -0.0043,0.005 -0.02695,-0.005 -0.03125,0 C 17.130662,18.776467 14.715088,20 12,20 7.0294372,20 3,15.970563 3,11 3,6.0294372 7.0294372,2 12,2 z m 1,3 c -3.3137085,0 -6,2.6862915 -6,6 0,3.313709 2.6862915,6 6,6 1.306909,0 2.517172,-0.417256 3.5,-1.125 C 16.061817,15.559444 15.682243,15.169754 15.34375,14.75 14.923422,14.900039 14.471872,15 14,15 11.790861,15 10,13.209139 10,11 10,8.790861 11.790861,7 14,7 14.471872,7 14.923422,7.099961 15.34375,7.25 15.682243,6.830246 16.061817,6.4405563 16.5,6.125 15.517172,5.4172559 14.306909,5 13,5 z M 27,5 C 25.693091,5 24.482828,5.4172559 23.5,6.125 23.938183,6.4405563 24.317757,6.830246 24.65625,7.25 25.076578,7.0999606 25.528128,7 26,7 c 2.209139,0 4,1.790861 4,4 0,2.209139 -1.790861,4 -4,4 -0.471872,0 -0.923422,-0.09996 -1.34375,-0.25 C 24.317757,15.169754 23.938183,15.559444 23.5,15.875 24.482828,16.582744 25.693091,17 27,17 c 3.313709,0 6,-2.686291 6,-6 0,-3.3137085 -2.686291,-6 -6,-6 z"
       id="path3861"
       inkscape:connector-curvature="0" />
    <path
       sodipodi:type="arc"
       style="fill:#227755;fill-opacity:1;stroke:none"
       id="path4903"
       sodipodi:cx="20"
       sodipodi:cy="11"
       sodipodi:rx="5"
       sodipodi:ry="5"
       d="m 25,11 a 5,5 0 1 1 -10,0 5,5 0 1 1 10,0 z" />
  </g>
</svg>
